<svg viewBox="0 0 15 15" xmlns="http://www.w3.org/2000/svg" xmlns:xlink="http://www.w3.org/1999/xlink" width="15.000000" height="15.000000" fill="none" customFrame="#000000">
	<rect id="package" width="15.000000" height="15.000000" x="0.000000" y="0.000000" />
	<path id="矢量 795" d="M7.5 13.7487C7.71942 13.7487 7.93498 13.691 8.125 13.5813L12.5 11.0813C12.6898 10.9716 12.8475 10.8141 12.9572 10.6243C13.0669 10.4345 13.1248 10.2192 13.125 10L13.125 5C13.1248 4.7808 13.0669 4.56551 12.9572 4.37573C12.8475 4.18595 12.6898 4.02835 12.5 3.91875L8.125 1.41875C7.93498 1.30904 7.71942 1.25128 7.5 1.25128C7.28058 1.25128 7.06502 1.30904 6.875 1.41875L2.5 3.91875C2.31016 4.02835 2.15249 4.18595 2.04279 4.37573C1.93309 4.56551 1.87523 4.7808 1.875 5L1.875 10C1.87523 10.2192 1.93309 10.4345 2.04279 10.6243C2.15249 10.8141 2.31016 10.9716 2.5 11.0813L6.875 13.5813C7.06502 13.691 7.28058 13.7487 7.5 13.7487Z" fill-rule="nonzero" stroke="rgb(148,163,184)" stroke-linecap="round" stroke-linejoin="round" stroke-width="1.250000" />
	<path id="矢量 796" d="M7.5 13.75L7.5 7.5" stroke="rgb(148,163,184)" stroke-linecap="round" stroke-linejoin="round" stroke-width="1.250000" />
	<path id="矢量 797" d="M2.05615 4.375L7.4999 7.5L12.9437 4.375" fill-rule="nonzero" stroke="rgb(148,163,184)" stroke-linecap="round" stroke-linejoin="round" stroke-width="1.250000" />
	<path id="矢量 798" d="M4.6875 2.66876L10.3125 5.88751" stroke="rgb(148,163,184)" stroke-linecap="round" stroke-linejoin="round" stroke-width="1.250000" />
</svg>
