<svg viewBox="0 0 15 15" xmlns="http://www.w3.org/2000/svg" xmlns:xlink="http://www.w3.org/1999/xlink" width="15.000000" height="15.000000" fill="none" customFrame="#000000">
	<rect id="upload" width="15.000000" height="15.000000" x="0.000000" y="0.000000" />
	<path id="矢量 847" d="M7.5 1.875L7.5 9.375" stroke="rgb(148,163,184)" stroke-linecap="round" stroke-linejoin="round" stroke-width="1.250000" />
	<path id="矢量 848" d="M10.625 5L7.5 1.875L4.375 5" fill-rule="nonzero" stroke="rgb(148,163,184)" stroke-linecap="round" stroke-linejoin="round" stroke-width="1.250000" />
	<path id="矢量 849" d="M13.125 9.375L13.125 11.875C13.125 12.0944 13.0672 12.31 12.9575 12.5C12.8478 12.69 12.69 12.8478 12.5 12.9575C12.31 13.0672 12.0944 13.125 11.875 13.125L3.125 13.125C2.90558 13.125 2.69002 13.0672 2.5 12.9575C2.30998 12.8478 2.15218 12.69 2.04247 12.5C1.93276 12.31 1.875 12.0944 1.875 11.875L1.875 9.375" fill-rule="nonzero" stroke="rgb(148,163,184)" stroke-linecap="round" stroke-linejoin="round" stroke-width="1.250000" />
</svg>
