<svg viewBox="0 0 11.25 12.5" xmlns="http://www.w3.org/2000/svg" xmlns:xlink="http://www.w3.org/1999/xlink" width="11.250000" height="12.500000" fill="none" customFrame="#000000">
	<path id="矢量 278" d="M8.125 0.625L9.375 0.625C9.59442 0.625 9.80998 0.682758 10 0.792468C10.19 0.902179 10.3478 1.05998 10.4575 1.25C10.5672 1.44002 10.625 1.65558 10.625 1.875L10.625 10.625C10.625 10.8444 10.5672 11.06 10.4575 11.25C10.3478 11.44 10.19 11.5978 10 11.7075C9.80998 11.8172 9.59442 11.875 9.375 11.875L1.875 11.875C1.65558 11.875 1.44002 11.8172 1.25 11.7075C1.05998 11.5978 0.902179 11.44 0.792468 11.25C0.682758 11.06 0.625 10.8444 0.625 10.625L0.625 1.875C0.625 1.65558 0.682758 1.44002 0.792468 1.25C0.902179 1.05998 1.05998 0.902179 1.25 0.792468C1.44002 0.682758 1.65558 0.625 1.875 0.625L3.125 0.625" fill-rule="nonzero" stroke="rgb(14,165,233)" stroke-linecap="round" stroke-linejoin="round" stroke-width="1.250000" />
</svg>
